# xmcd
#
# Track frame offsets: 
#        150
#        19221
#        46262
#        71949
#        86665
#        100863
#        123354
#        125721
#        134982
#        147275
#        158945
#        174609
#        176651
#        187181
#        194728
#
# Disc length: 2735 seconds
#
# Revision: 0
# Processed by: cddbd v1.5.2PL0 Copyright (c) Steve Scherf et al.
# Submitted via: ExactAudioCopy v1.0b3
#
DISCID=f00aad0f
DTITLE=野坂昭如 他（永六輔　小沢昭一 美輪明宏） - 野坂昭如ライブ総集編 VOL. 1（1973年 - 1974年）
DYEAR=2013
DGENRE=Blues
TTITLE0=わいせつ裁判 リサイタルより - 黒の舟唄
TTITLE1=わいせつ裁判 リサイタルより - 弁説
TTITLE2=わいせつ裁判 リサイタルより - ミロール（美輪明宏）
TTITLE3=わいせつ裁判 リサイタルより - 弁説
TTITLE4=わいせつ裁判 リサイタルより - バージンブルース
TTITLE5=わいせつ裁判 リサイタルより - マリリン・モンロー・ノー・リターン
TTITLE6=花の中年御三家、武道館の大激突より - オープニング（メドレー）、マリリン～、遠くへ行きたい、土耳古行進曲
TTITLE7=花の中年御三家、武道館の大激突より - 男の花道（野坂昭如・永六輔・小沢昭一）
TTITLE8=花の中年御三家、武道館の大激突より - 終末のタンゴ
TTITLE9=花の中年御三家、武道館の大激突より - 大懺悔
TTITLE10=花の中年御三家、武道館の大激突より - 花ざかりの森
TTITLE11=花の中年御三家、武道館の大激突より - 語り
TTITLE12=花の中年御三家、武道館の大激突より - 大挽歌
TTITLE13=花の中年御三家、武道館の大激突より - 語り
TTITLE14=花の中年御三家、武道館の大激突より - ヨコスカ・マンボ
EXTD=
EXTT0=
EXTT1=
EXTT2=
EXTT3=
EXTT4=
EXTT5=
EXTT6=
EXTT7=
EXTT8=
EXTT9=
EXTT10=
EXTT11=
EXTT12=
EXTT13=
EXTT14=
PLAYORDER=
